<svg width="340" height="77" viewBox="0 0 340 77" fill="none" xmlns="http://www.w3.org/2000/svg">
<path fill-rule="evenodd" clip-rule="evenodd" d="M27.8741 22.7969H47.1254L52.6561 14.9052L37.4995 10L22.3439 14.9052L27.8741 22.7969ZM50.1958 24.9875L56.154 43.2537L65 45.8127V29.9036L55.694 17.1428L50.1958 24.9875ZM37.4995 54.8826L52.4471 44.0647L46.7376 26.5595H28.2619L22.5524 44.0647L37.4995 54.8826ZM39.388 58.1666V67L54.4962 62.1095L63.7812 49.3779L55.0284 46.8462L39.388 58.1669V58.1666ZM35.6115 58.1666L19.9712 46.846L11.2183 49.3777L20.5034 62.1093L35.6115 66.9998V58.1664V58.1666ZM24.8037 24.9875L19.306 17.1432L10 29.9039V45.813L18.846 43.254L24.8037 24.9875Z" fill="black"/>
<path d="M84.456 43.492V50.5H79.272V29.156H88.872C91.368 29.156 93.3307 29.7213 94.76 30.852C96.1893 31.9827 96.904 33.732 96.904 36.1C96.904 38.468 96.1893 40.292 94.76 41.572C93.3307 42.852 91.368 43.492 88.872 43.492H84.456ZM84.456 39.492H88.232C88.7867 39.492 89.256 39.4173 89.64 39.268C90.0453 39.1187 90.3653 38.9053 90.6 38.628C90.8347 38.3507 91.0053 38.0307 91.112 37.668C91.24 37.284 91.304 36.8787 91.304 36.452C91.304 35.94 91.24 35.492 91.112 35.108C91.0053 34.724 90.8347 34.3827 90.6 34.084C90.3653 33.7853 90.0453 33.5613 89.64 33.412C89.256 33.2627 88.7867 33.188 88.232 33.188H84.456V39.492ZM100.362 50.5V36.004C100.661 35.748 101.194 35.46 101.962 35.14C102.73 34.7987 103.605 34.5 104.586 34.244C105.589 33.9667 106.591 33.828 107.594 33.828C108.597 33.828 109.386 33.9027 109.962 34.052C110.538 34.2013 110.975 34.3933 111.274 34.628V38.116C110.911 38.0307 110.453 37.9667 109.898 37.924C109.343 37.8813 108.767 37.86 108.17 37.86C107.573 37.8387 107.007 37.8387 106.474 37.86C105.941 37.8813 105.493 37.924 105.13 37.988V50.5H100.362ZM114.146 50.5V34.532H118.914L118.946 50.5H114.146ZM114.049 32.1V28.42H118.978V32.1H114.049ZM123.206 35.684C123.611 35.4707 124.144 35.2573 124.806 35.044C125.467 34.8093 126.192 34.6067 126.982 34.436C127.771 34.2653 128.56 34.1267 129.35 34.02C130.16 33.9133 130.907 33.86 131.59 33.86C133.04 33.86 134.278 34.052 135.302 34.436C136.326 34.7987 137.104 35.396 137.638 36.228C138.192 37.06 138.47 38.1907 138.47 39.62V50.5H133.702V40.58C133.702 40.1747 133.638 39.8013 133.51 39.46C133.403 39.1187 133.232 38.8307 132.998 38.596C132.763 38.34 132.443 38.148 132.038 38.02C131.632 37.8707 131.142 37.796 130.566 37.796C130.075 37.796 129.584 37.86 129.094 37.988C128.603 38.0947 128.23 38.212 127.974 38.34V50.5H123.206V35.684ZM149.33 51.14C147.452 51.14 146.055 50.7027 145.138 49.828C144.22 48.932 143.762 47.6733 143.762 46.052V37.956H141.394V34.308H143.762V29.86H148.754V34.308H152.306V37.956H148.754V45.444C148.754 45.9987 148.871 46.4147 149.106 46.692C149.34 46.948 149.735 47.076 150.29 47.076C150.61 47.076 150.962 47.012 151.346 46.884C151.73 46.756 152.05 46.596 152.306 46.404V50.5C151.858 50.7347 151.367 50.8947 150.834 50.98C150.322 51.0867 149.82 51.14 149.33 51.14ZM162.165 50.98C161.183 50.98 160.255 50.884 159.381 50.692C158.527 50.5213 157.77 50.2333 157.109 49.828C156.469 49.4013 155.967 48.836 155.605 48.132C155.242 47.4067 155.061 46.5107 155.061 45.444C155.061 44.4413 155.263 43.5667 155.669 42.82C156.095 42.0733 156.735 41.4973 157.589 41.092C158.442 40.6867 159.519 40.484 160.821 40.484C161.546 40.484 162.25 40.5587 162.933 40.708C163.615 40.8573 164.223 41.06 164.757 41.316C165.311 41.572 165.749 41.8493 166.069 42.148L166.261 44.452C165.834 44.196 165.322 43.9933 164.725 43.844C164.127 43.6947 163.487 43.62 162.805 43.62C161.759 43.62 160.991 43.78 160.501 44.1C160.031 44.3987 159.797 44.8787 159.797 45.54C159.797 45.9453 159.914 46.308 160.149 46.628C160.383 46.948 160.693 47.1933 161.077 47.364C161.482 47.5347 161.898 47.62 162.325 47.62C163.413 47.62 164.17 47.5453 164.597 47.396C165.045 47.2467 165.269 46.948 165.269 46.5V40.548C165.269 39.5667 164.949 38.8627 164.309 38.436C163.69 37.988 162.805 37.764 161.653 37.764C160.714 37.764 159.765 37.9347 158.805 38.276C157.866 38.596 157.098 38.9907 156.501 39.46V35.236C157.055 34.8947 157.909 34.5747 159.061 34.276C160.234 33.9773 161.546 33.828 162.997 33.828C163.509 33.828 164.074 33.8707 164.693 33.956C165.311 34.0413 165.93 34.2013 166.549 34.436C167.167 34.6493 167.733 34.9693 168.245 35.396C168.778 35.8227 169.205 36.3667 169.525 37.028C169.845 37.6893 170.005 38.5107 170.005 39.492L169.972 47.14C169.972 48.0573 169.663 48.804 169.045 49.38C168.426 49.9347 167.53 50.34 166.357 50.596C165.205 50.852 163.807 50.98 162.165 50.98ZM181.661 50.98C180.765 50.98 179.869 50.916 178.973 50.788C178.098 50.6813 177.298 50.4787 176.573 50.18C175.869 49.86 175.304 49.4333 174.877 48.9C174.45 48.3453 174.237 47.6307 174.237 46.756V28.324H178.909V37.156L178.013 35.652C178.397 35.204 178.888 34.852 179.485 34.596C180.082 34.3187 180.69 34.1267 181.309 34.02C181.928 33.9133 182.44 33.86 182.845 33.86C185.234 33.86 187.048 34.5853 188.285 36.036C189.544 37.4653 190.173 39.5667 190.173 42.34C190.173 43.9613 189.96 45.3267 189.533 46.436C189.106 47.5453 188.509 48.4307 187.741 49.092C186.973 49.7533 186.077 50.2333 185.053 50.532C184.029 50.8307 182.898 50.98 181.661 50.98ZM181.597 47.012C182.536 47.012 183.282 46.8307 183.837 46.468C184.392 46.084 184.786 45.5613 185.021 44.9C185.277 44.2387 185.405 43.4813 185.405 42.628C185.405 41.412 185.245 40.4413 184.925 39.716C184.605 38.9907 184.168 38.468 183.613 38.148C183.058 37.828 182.418 37.668 181.693 37.668C181.266 37.668 180.797 37.7213 180.285 37.828C179.773 37.9347 179.314 38.1053 178.909 38.34V45.508C178.909 45.892 179.026 46.1907 179.261 46.404C179.496 46.6173 179.816 46.7773 180.221 46.884C180.648 46.9693 181.106 47.012 181.597 47.012ZM198.192 50.5H193.456V28.196H198.192V50.5ZM209.753 50.98C208.131 50.98 206.691 50.6493 205.433 49.988C204.195 49.3053 203.225 48.3453 202.521 47.108C201.838 45.8493 201.497 44.356 201.497 42.628C201.497 39.812 202.19 37.636 203.577 36.1C204.985 34.5427 206.99 33.764 209.593 33.764C211.385 33.764 212.825 34.148 213.913 34.916C215.022 35.684 215.833 36.804 216.345 38.276C216.857 39.748 217.102 41.54 217.081 43.652H204.761L204.249 40.612H213.145L212.441 42.116C212.419 40.388 212.174 39.172 211.705 38.468C211.235 37.764 210.467 37.412 209.401 37.412C208.803 37.412 208.259 37.5613 207.769 37.86C207.299 38.1587 206.926 38.66 206.649 39.364C206.393 40.0467 206.265 40.996 206.265 42.212C206.265 43.748 206.627 44.932 207.353 45.764C208.099 46.596 209.283 47.012 210.905 47.012C211.502 47.012 212.089 46.948 212.665 46.82C213.262 46.6707 213.817 46.5 214.329 46.308C214.841 46.116 215.278 45.9453 215.641 45.796V49.892C214.873 50.212 214.009 50.468 213.049 50.66C212.11 50.8733 211.011 50.98 209.753 50.98ZM225.193 50.98C224.041 50.98 223.049 50.852 222.217 50.596C221.407 50.3613 220.639 50.0947 219.913 49.796V45.604C220.361 45.9027 220.863 46.212 221.417 46.532C221.972 46.8307 222.58 47.076 223.241 47.268C223.924 47.46 224.639 47.556 225.385 47.556C226.153 47.556 226.687 47.428 226.985 47.172C227.305 46.8947 227.465 46.564 227.465 46.18C227.465 45.8173 227.305 45.5293 226.985 45.316C226.665 45.0813 226.249 44.8893 225.737 44.74C225.225 44.5907 224.681 44.452 224.105 44.324C223.593 44.2173 223.081 44.0573 222.569 43.844C222.057 43.6093 221.599 43.3 221.193 42.916C220.788 42.532 220.457 42.0627 220.201 41.508C219.967 40.932 219.849 40.2387 219.849 39.428C219.849 38.3827 220.052 37.5187 220.457 36.836C220.863 36.132 221.396 35.5667 222.057 35.14C222.719 34.7133 223.433 34.4147 224.201 34.244C224.969 34.052 225.716 33.9667 226.441 33.988C227.764 34.0307 228.809 34.18 229.577 34.436C230.367 34.6707 231.081 34.98 231.721 35.364V39.108C230.996 38.7027 230.271 38.3293 229.545 37.988C228.841 37.6253 228.031 37.444 227.113 37.444C226.281 37.444 225.684 37.572 225.321 37.828C224.959 38.084 224.777 38.4253 224.777 38.852C224.777 39.2573 224.895 39.5773 225.129 39.812C225.385 40.0467 225.716 40.2387 226.121 40.388C226.527 40.516 226.975 40.644 227.465 40.772C227.999 40.9 228.543 41.06 229.097 41.252C229.673 41.4227 230.207 41.6787 230.697 42.02C231.209 42.34 231.615 42.7987 231.913 43.396C232.233 43.972 232.393 44.74 232.393 45.7C232.372 47.0013 232.02 48.0467 231.337 48.836C230.655 49.604 229.769 50.1587 228.681 50.5C227.615 50.82 226.452 50.98 225.193 50.98ZM244.835 50.5V29.156H259.363V33.156H250.019V38.244H258.083V42.308H250.019V50.5H244.835ZM269.408 50.98C266.677 50.98 264.619 50.2547 263.232 48.804C261.867 47.332 261.184 45.1773 261.184 42.34C261.184 39.2893 261.877 37.1027 263.264 35.78C264.672 34.436 266.72 33.764 269.408 33.764C271.221 33.764 272.736 34.0733 273.952 34.692C275.189 35.2893 276.117 36.2173 276.736 37.476C277.376 38.7347 277.696 40.356 277.696 42.34C277.696 45.1773 276.981 47.332 275.552 48.804C274.123 50.2547 272.075 50.98 269.408 50.98ZM269.408 47.172C270.197 47.172 270.848 46.9907 271.36 46.628C271.893 46.244 272.288 45.7 272.544 44.996C272.821 44.2707 272.96 43.3853 272.96 42.34C272.96 41.1453 272.821 40.2067 272.544 39.524C272.288 38.82 271.893 38.3187 271.36 38.02C270.827 37.7 270.176 37.54 269.408 37.54C268.597 37.54 267.936 37.7 267.424 38.02C266.912 38.34 266.528 38.852 266.272 39.556C266.037 40.2387 265.92 41.1667 265.92 42.34C265.92 43.9613 266.197 45.1773 266.752 45.988C267.328 46.7773 268.213 47.172 269.408 47.172ZM280.987 50.5V36.004C281.286 35.748 281.819 35.46 282.587 35.14C283.355 34.7987 284.23 34.5 285.211 34.244C286.214 33.9667 287.216 33.828 288.219 33.828C289.222 33.828 290.011 33.9027 290.587 34.052C291.163 34.2013 291.6 34.3933 291.899 34.628V38.116C291.536 38.0307 291.078 37.9667 290.523 37.924C289.968 37.8813 289.392 37.86 288.795 37.86C288.198 37.8387 287.632 37.8387 287.099 37.86C286.566 37.8813 286.118 37.924 285.755 37.988V50.5H280.987ZM300.883 50.98C299.411 50.8947 298.141 50.5533 297.075 49.956C296.029 49.3587 295.208 48.484 294.611 47.332C294.035 46.1587 293.747 44.6867 293.747 42.916C293.747 41.124 293.971 39.6413 294.419 38.468C294.867 37.2733 295.485 36.3453 296.275 35.684C297.085 35.0227 298.056 34.5533 299.187 34.276C300.317 33.9987 301.576 33.86 302.963 33.86C304.307 33.86 305.48 34.0307 306.483 34.372C307.485 34.7133 308.264 35.204 308.819 35.844C309.373 36.484 309.651 37.2733 309.651 38.212V50.692C309.651 51.8227 309.469 52.8147 309.107 53.668C308.744 54.5427 308.2 55.268 307.475 55.844C306.771 56.4413 305.907 56.8893 304.883 57.188C303.88 57.4867 302.717 57.636 301.395 57.636C299.965 57.636 298.739 57.5293 297.715 57.316C296.712 57.124 295.944 56.8787 295.411 56.58V52.388C295.731 52.516 296.2 52.6867 296.819 52.9C297.437 53.1133 298.131 53.284 298.899 53.412C299.667 53.5613 300.435 53.636 301.203 53.636C302.205 53.636 302.973 53.4973 303.507 53.22C304.061 52.9427 304.445 52.5693 304.659 52.1C304.872 51.6307 304.979 51.0973 304.979 50.5V47.876L305.907 48.548C305.565 49.0387 305.16 49.4653 304.691 49.828C304.221 50.1907 303.667 50.468 303.027 50.66C302.408 50.8733 301.693 50.98 300.883 50.98ZM302.099 47.396C302.653 47.396 303.165 47.3427 303.635 47.236C304.104 47.108 304.552 46.9267 304.979 46.692V39.268C304.979 38.82 304.851 38.4787 304.595 38.244C304.339 38.0093 304.019 37.8493 303.635 37.764C303.251 37.6787 302.845 37.636 302.419 37.636C301.437 37.636 300.659 37.8493 300.083 38.276C299.528 38.7027 299.123 39.3 298.867 40.068C298.632 40.8147 298.515 41.668 298.515 42.628C298.515 44.1 298.845 45.2627 299.507 46.116C300.168 46.9693 301.032 47.396 302.099 47.396ZM320.971 50.98C319.35 50.98 317.91 50.6493 316.651 49.988C315.414 49.3053 314.443 48.3453 313.739 47.108C313.057 45.8493 312.715 44.356 312.715 42.628C312.715 39.812 313.409 37.636 314.795 36.1C316.203 34.5427 318.209 33.764 320.811 33.764C322.603 33.764 324.043 34.148 325.131 34.916C326.241 35.684 327.051 36.804 327.563 38.276C328.075 39.748 328.321 41.54 328.299 43.652H315.979L315.467 40.612H324.363L323.659 42.116C323.638 40.388 323.393 39.172 322.923 38.468C322.454 37.764 321.686 37.412 320.619 37.412C320.022 37.412 319.478 37.5613 318.987 37.86C318.518 38.1587 318.145 38.66 317.867 39.364C317.611 40.0467 317.483 40.996 317.483 42.212C317.483 43.748 317.846 44.932 318.571 45.764C319.318 46.596 320.502 47.012 322.123 47.012C322.721 47.012 323.307 46.948 323.883 46.82C324.481 46.6707 325.035 46.5 325.547 46.308C326.059 46.116 326.497 45.9453 326.859 45.796V49.892C326.091 50.212 325.227 50.468 324.267 50.66C323.329 50.8733 322.23 50.98 320.971 50.98Z" fill="black"/>
</svg>
